<svg width="860" height="320" viewBox="0 0 860 320" xmlns="http://www.w3.org/2000/svg">
  <defs>
    <!-- Background gradient: asphalt feel -->
    <linearGradient id="bgGrad" x1="0" y1="0" x2="0" y2="1">
      <stop offset="0%" stop-color="#0d0d0f"/>
      <stop offset="100%" stop-color="#111114"/>
    </linearGradient>

    <!-- Track gradient: dark tarmac with slight sheen -->
    <linearGradient id="trackGrad" x1="0" y1="0" x2="0" y2="1">
      <stop offset="0%" stop-color="#1c1c20"/>
      <stop offset="50%" stop-color="#222228"/>
      <stop offset="100%" stop-color="#1a1a1e"/>
    </linearGradient>

    <!-- Red glow filter for car -->
    <filter id="redGlow" x="-60%" y="-60%" width="220%" height="220%">
      <feGaussianBlur in="SourceGraphic" stdDeviation="3" result="blur"/>
      <feColorMatrix in="blur" type="matrix"
        values="2 0 0 0 0
                0 0 0 0 0
                0 0 0 0 0
                0 0 0 0.7 0" result="coloredBlur"/>
      <feMerge>
        <feMergeNode in="coloredBlur"/>
        <feMergeNode in="SourceGraphic"/>
      </feMerge>
    </filter>

    <!-- Exhaust/flame glow -->
    <filter id="flameGlow" x="-100%" y="-100%" width="300%" height="300%">
      <feGaussianBlur in="SourceGraphic" stdDeviation="2.5" result="blur"/>
      <feColorMatrix in="blur" type="matrix"
        values="3 0 0 0 0.4
                0 1 0 0 0.1
                0 0 0 0 0
                0 0 0 1 0" result="coloredBlur"/>
      <feMerge>
        <feMergeNode in="coloredBlur"/>
        <feMergeNode in="SourceGraphic"/>
      </feMerge>
    </filter>

    <!-- Soft inner shadow on track -->
    <filter id="trackShadow" x="-5%" y="-5%" width="110%" height="110%">
      <feGaussianBlur in="SourceAlpha" stdDeviation="6" result="blur"/>
      <feOffset dx="0" dy="2"/>
      <feComposite in2="SourceGraphic"/>
    </filter>

    <!-- Speed blur for the car in straight sections -->
    <filter id="speedBlur" x="-50%" y="-50%" width="200%" height="200%">
      <feGaussianBlur in="SourceGraphic" stdDeviation="4 0.5"/>
    </filter>

    <!-- The oval track path (center line) -->
    <!-- Large oval: generous curves, proper F1-style layout -->
    <path id="racepath"
      d="M 430 52
         C 570 52, 790 90, 790 160
         C 790 230, 570 268, 430 268
         C 290 268, 70 230, 70 160
         C 70 90, 290 52, 430 52 Z"
    />

    <!-- Clip for speed lines (only show near car) -->
    <clipPath id="carClip">
      <rect x="-40" y="-12" width="40" height="24"/>
    </clipPath>

  </defs>

  <!-- ── BACKGROUND ─────────────────────────────────────────── -->
  <rect width="860" height="320" fill="url(#bgGrad)"/>

  <!-- Subtle grid lines for depth -->
  <line x1="0" y1="160" x2="860" y2="160" stroke="#ffffff" stroke-width="0.3" opacity="0.04"/>
  <line x1="430" y1="0" x2="430" y2="320" stroke="#ffffff" stroke-width="0.3" opacity="0.04"/>

  <!-- ── OUTER TRACK BORDER (kerb strips – red/white alternating) ── -->
  <path d="M 430 28 C 590 28, 814 72, 814 160 C 814 248, 590 292, 430 292 C 270 292, 46 248, 46 160 C 46 72, 270 28, 430 28 Z"
    fill="none" stroke="#e10600" stroke-width="7" stroke-dasharray="18 18" opacity="0.75"/>
  <path d="M 430 28 C 590 28, 814 72, 814 160 C 814 248, 590 292, 430 292 C 270 292, 46 248, 46 160 C 46 72, 270 28, 430 28 Z"
    fill="none" stroke="#ffffff" stroke-width="7" stroke-dasharray="18 18" stroke-dashoffset="18" opacity="0.45"/>

  <!-- ── TRACK SURFACE ──────────────────────────────────────── -->
  <path d="M 430 40 C 580 40, 802 82, 802 160 C 802 238, 580 280, 430 280 C 280 280, 58 238, 58 160 C 58 82, 280 40, 430 40 Z"
    fill="none" stroke="url(#trackGrad)" stroke-width="44"/>

  <!-- Inner kerb (inside edge – mirror of outer) -->
  <path d="M 430 64 C 575 64, 778 100, 778 160 C 778 220, 575 256, 430 256 C 285 256, 82 220, 82 160 C 82 100, 285 64, 430 64 Z"
    fill="none" stroke="#e10600" stroke-width="4" stroke-dasharray="12 12" opacity="0.5"/>
  <path d="M 430 64 C 575 64, 778 100, 778 160 C 778 220, 575 256, 430 256 C 285 256, 82 220, 82 160 C 82 100, 285 64, 430 64 Z"
    fill="none" stroke="#ffffff" stroke-width="4" stroke-dasharray="12 12" stroke-dashoffset="12" opacity="0.3"/>

  <!-- ── CENTER LANE DASHES ──────────────────────────────────── -->
  <path d="M 430 52 C 575 52, 790 90, 790 160 C 790 230, 575 268, 430 268 C 285 268, 70 230, 70 160 C 70 90, 285 52, 430 52 Z"
    fill="none" stroke="#ffffff" stroke-width="1" stroke-dasharray="16 14" opacity="0.12"/>

  <!-- ── TIRE MARKS (static scuff marks at corners) ──────────── -->
  <!-- Left corner upper -->
  <path d="M 108 110 Q 90 130 85 160" fill="none" stroke="#000000" stroke-width="8" opacity="0.5"/>
  <path d="M 116 115 Q 97 135 92 162" fill="none" stroke="#000000" stroke-width="6" opacity="0.3"/>
  <!-- Left corner lower -->
  <path d="M 85 162 Q 88 190 105 210" fill="none" stroke="#000000" stroke-width="7" opacity="0.4"/>
  <!-- Right corner upper -->
  <path d="M 752 110 Q 770 130 775 160" fill="none" stroke="#000000" stroke-width="8" opacity="0.5"/>
  <path d="M 744 115 Q 763 135 768 162" fill="none" stroke="#000000" stroke-width="6" opacity="0.3"/>
  <!-- Right corner lower -->
  <path d="M 775 162 Q 772 190 755 210" fill="none" stroke="#000000" stroke-width="7" opacity="0.4"/>

  <!-- ── START / FINISH LINE ──────────────────────────────────── -->
  <!-- Checkered box pattern at S/F line (top straight ~430, y=40-84) -->
  <rect x="420" y="40" width="8" height="44" fill="#fff" opacity="0.9"/>
  <rect x="420" y="40" width="4" height="11" fill="#111"/>
  <rect x="424" y="51" width="4" height="11" fill="#111"/>
  <rect x="420" y="62" width="4" height="11" fill="#111"/>
  <rect x="424" y="73" width="4" height="11" fill="#111"/>
  <!-- S/F label -->
  <text x="432" y="56" fill="#e10600" font-size="9" font-family="'Courier New', monospace" font-weight="bold" letter-spacing="1" opacity="0.95">S/F</text>

  <!-- ── SECTOR MARKERS ──────────────────────────────────────── -->
  <!-- Sector 1 – right side -->
  <rect x="780" y="153" width="24" height="14" rx="2" fill="#1a1a1a" stroke="#ffcc00" stroke-width="0.8"/>
  <text x="792" y="163" fill="#ffcc00" font-size="7" font-family="monospace" text-anchor="middle" letter-spacing="0.5">S1</text>
  <!-- Sector 2 – bottom -->
  <rect x="418" y="272" width="24" height="14" rx="2" fill="#1a1a1a" stroke="#00d2be" stroke-width="0.8"/>
  <text x="430" y="282" fill="#00d2be" font-size="7" font-family="monospace" text-anchor="middle" letter-spacing="0.5">S2</text>
  <!-- Sector 3 – left side -->
  <rect x="55" y="153" width="24" height="14" rx="2" fill="#1a1a1a" stroke="#ffffff" stroke-width="0.8"/>
  <text x="67" y="163" fill="#ffffff" font-size="7" font-family="monospace" text-anchor="middle" letter-spacing="0.5" opacity="0.7">S3</text>

  <!-- ── DRS ZONE INDICATOR ──────────────────────────────────── -->
  <rect x="260" y="43" width="100" height="10" rx="2" fill="#00d2be" opacity="0.15"/>
  <text x="310" y="52" fill="#00d2be" font-size="7" font-family="monospace" text-anchor="middle" letter-spacing="1" opacity="0.7">DRS ZONE</text>

  <!-- ── PIT LANE ENTRY/EXIT (decorative, bottom straight) ────── -->
  <path d="M 560 268 Q 560 290 530 294 Q 430 300 330 294 Q 300 290 300 268"
    fill="none" stroke="#ffcc00" stroke-width="1.5" stroke-dasharray="6 4" opacity="0.4"/>
  <text x="430" y="308" fill="#ffcc00" font-size="7.5" font-family="monospace" text-anchor="middle" letter-spacing="1.5" opacity="0.55">PIT LANE</text>

  <!-- ── SPEED LINES (animated, trailing behind car) ─────────── -->
  <g id="speedlines" opacity="0">
    <line x1="-8" y1="-3" x2="-28" y2="-3" stroke="#ff4400" stroke-width="1.2" opacity="0.7"/>
    <line x1="-6" y1="0" x2="-32" y2="0" stroke="#ff6600" stroke-width="1.8" opacity="0.9"/>
    <line x1="-8" y1="3" x2="-28" y2="3" stroke="#ff4400" stroke-width="1.2" opacity="0.7"/>
    <line x1="-4" y1="-5" x2="-20" y2="-5" stroke="#ff2200" stroke-width="0.8" opacity="0.5"/>
    <line x1="-4" y1="5" x2="-20" y2="5" stroke="#ff2200" stroke-width="0.8" opacity="0.5"/>
    <animate attributeName="opacity" values="0;0;0.9;0.9;0;0;0.9;0.9;0;0" dur="4s" repeatCount="indefinite"/>
  </g>

  <!-- ── F1 CAR ──────────────────────────────────────────────── -->
  <g id="f1car" filter="url(#redGlow)">

    <!-- Speed lines (co-animated with car) -->
    <use href="#speedlines"/>

    <!-- Exhaust flame (animated flicker) -->
    <g filter="url(#flameGlow)">
      <ellipse id="flame1" cx="-15" cy="0" rx="7" ry="2.5" fill="#ff6600">
        <animate attributeName="rx" values="7;11;5;9;6;10;7" dur="0.18s" repeatCount="indefinite"/>
        <animate attributeName="ry" values="2.5;3.5;1.5;3;2;3.5;2.5" dur="0.18s" repeatCount="indefinite"/>
        <animate attributeName="opacity" values="0.85;1;0.6;0.9;0.7;1;0.85" dur="0.18s" repeatCount="indefinite"/>
        <animate attributeName="fill" values="#ff6600;#ffaa00;#ff3300;#ff8800;#ff6600" dur="0.18s" repeatCount="indefinite"/>
      </ellipse>
      <ellipse cx="-19" cy="0" rx="4" ry="1.5" fill="#ffdd00" opacity="0.7">
        <animate attributeName="rx" values="4;7;3;5;4" dur="0.22s" repeatCount="indefinite"/>
        <animate attributeName="opacity" values="0.7;1;0.4;0.8;0.7" dur="0.22s" repeatCount="indefinite"/>
      </ellipse>
    </g>

    <!-- Rear wing endplates -->
    <rect x="-14" y="-8" width="2.5" height="16" rx="0.5" fill="#990000"/>
    <!-- Rear wing main plane -->
    <rect x="-13" y="-9" width="11" height="3" rx="0.5" fill="#cc0000"/>
    <!-- Rear wing secondary plane -->
    <rect x="-13" y="-6" width="9" height="2" rx="0.5" fill="#aa0000"/>
    <!-- DRS flap highlight -->
    <rect x="-13" y="-9" width="11" height="1" rx="0.3" fill="#ff2222" opacity="0.6"/>

    <!-- Car body – main sidepod shape -->
    <path d="M -10 -5 L 11 -4 L 15 -2 L 15 2 L 11 4 L -10 5 L -12 3 L -12 -3 Z" fill="#e10600"/>
    <!-- Body highlight (top sheen) -->
    <path d="M -10 -5 L 8 -4 L 12 -2.5 L -8 -3 Z" fill="#ff3333" opacity="0.4"/>

    <!-- Sidepod vents -->
    <rect x="-4" y="-5" width="1" height="3" rx="0.5" fill="#aa0000" opacity="0.8"/>
    <rect x="-2" y="-5" width="1" height="3" rx="0.5" fill="#aa0000" opacity="0.8"/>
    <rect x="0" y="-5" width="1" height="3" rx="0.5" fill="#aa0000" opacity="0.8"/>

    <!-- Halo device -->
    <path d="M 0 -3.5 Q 5 -6 10 -3.5 Q 5 -4.5 0 -3.5" fill="none" stroke="#222" stroke-width="2"/>
    <!-- Cockpit / driver helmet -->
    <ellipse cx="4" cy="0" rx="4" ry="2.5" fill="#0a0a1a"/>
    <ellipse cx="4.5" cy="-0.5" rx="2.5" ry="1.5" fill="#1a2a6c" opacity="0.9"/>
    <!-- Visor reflection -->
    <line x1="3" y1="-1.2" x2="6" y2="-0.5" stroke="#88bbff" stroke-width="0.6" opacity="0.6"/>

    <!-- Front nose cone -->
    <path d="M 11 -2 L 19 -1 L 19 1 L 11 2 Z" fill="#cc0000"/>
    <path d="M 17 -1 L 21 0 L 17 1 Z" fill="#aa0000"/>

    <!-- Front wing main plane -->
    <rect x="12" y="-7" width="8" height="2.5" rx="0.5" fill="#cc0000"/>
    <rect x="12" y="4.5" width="8" height="2.5" rx="0.5" fill="#cc0000"/>
    <!-- Front wing endplates -->
    <rect x="19" y="-7" width="2" height="14" rx="0.5" fill="#990000" opacity="0.9"/>
    <!-- Front wing bargeboard -->
    <rect x="14" y="-6" width="1" height="12" rx="0.3" fill="#bb0000" opacity="0.5"/>

    <!-- Wheels – rear (fatter) -->
    <ellipse cx="-7" cy="-6" rx="2.5" ry="3.5" fill="#1a1a1a" stroke="#333" stroke-width="0.8"/>
    <ellipse cx="-7" cy="-6" rx="1.2" ry="1.8" fill="#2a2a2a"/>
    <ellipse cx="-7" cy="6" rx="2.5" ry="3.5" fill="#1a1a1a" stroke="#333" stroke-width="0.8"/>
    <ellipse cx="-7" cy="6" rx="1.2" ry="1.8" fill="#2a2a2a"/>
    <!-- Wheels – front (narrower) -->
    <ellipse cx="8" cy="-6" rx="1.8" ry="2.8" fill="#1a1a1a" stroke="#333" stroke-width="0.8"/>
    <ellipse cx="8" cy="-6" rx="0.9" ry="1.4" fill="#2a2a2a"/>
    <ellipse cx="8" cy="6" rx="1.8" ry="2.8" fill="#1a1a1a" stroke="#333" stroke-width="0.8"/>
    <ellipse cx="8" cy="6" rx="0.9" ry="1.4" fill="#2a2a2a"/>

    <!-- Wheel rim highlight -->
    <ellipse cx="-7" cy="-6" rx="1.2" ry="1.8" fill="none" stroke="#ff2200" stroke-width="0.5" opacity="0.5">
      <animateTransform attributeName="transform" type="rotate" from="0 -7 -6" to="360 -7 -6" dur="0.3s" repeatCount="indefinite"/>
    </ellipse>
    <ellipse cx="-7" cy="6" rx="1.2" ry="1.8" fill="none" stroke="#ff2200" stroke-width="0.5" opacity="0.5">
      <animateTransform attributeName="transform" type="rotate" from="0 -7 6" to="360 -7 6" dur="0.3s" repeatCount="indefinite"/>
    </ellipse>
    <ellipse cx="8" cy="-6" rx="0.9" ry="1.4" fill="none" stroke="#ff2200" stroke-width="0.5" opacity="0.5">
      <animateTransform attributeName="transform" type="rotate" from="0 8 -6" to="360 8 -6" dur="0.25s" repeatCount="indefinite"/>
    </ellipse>
    <ellipse cx="8" cy="6" rx="0.9" ry="1.4" fill="none" stroke="#ff2200" stroke-width="0.5" opacity="0.5">
      <animateTransform attributeName="transform" type="rotate" from="0 8 6" to="360 8 6" dur="0.25s" repeatCount="indefinite"/>
    </ellipse>

    <!-- Car number decal -->
    <text x="-1" y="1.8" fill="white" font-size="5.5" font-family="'Arial Black', monospace" font-weight="900" text-anchor="middle" opacity="0.95">13</text>

  </g>

  <!-- Animate the car along the track -->
  <animateMotion href="#f1car" dur="4s" repeatCount="indefinite" rotate="auto">
    <mpath href="#racepath"/>
  </animateMotion>

  <!-- ── GHOST / SHADOW CAR (trailing behind, same path, offset) ── -->
  <g id="ghostcar" opacity="0.18">
    <ellipse cx="0" cy="0" rx="22" ry="8" fill="#e10600"/>
  </g>
  <animateMotion href="#ghostcar" dur="4s" begin="-0.3s" repeatCount="indefinite" rotate="auto">
    <mpath href="#racepath"/>
  </animateMotion>

  <!-- ── BOTTOM LABEL ─────────────────────────────────────────── -->
  <text x="430" y="315" text-anchor="middle" fill="#555" font-size="9" font-family="'Courier New', monospace" letter-spacing="3" opacity="0.8">LIGHTS OUT AND AWAY WE GO</text>

  <!-- ── LAP COUNTER (animated cycling) ──────────────────────── -->
  <rect x="10" y="10" width="60" height="22" rx="3" fill="#1a1a1a" stroke="#e10600" stroke-width="0.8"/>
  <text x="40" y="22" fill="#e10600" font-size="8" font-family="monospace" text-anchor="middle" letter-spacing="1">
    LAP
    <animate attributeName="fill" values="#e10600;#ff4444;#e10600" dur="4s" repeatCount="indefinite"/>
  </text>
  <text x="40" y="30" fill="#ffffff" font-size="8" font-family="monospace" text-anchor="middle">
    <animate attributeName="textContent"
      values="1/∞;1/∞;1/∞;1/∞;2/∞;2/∞;2/∞;2/∞;3/∞;3/∞;3/∞;3/∞"
      dur="12s" repeatCount="indefinite"/>
  </text>

  <!-- ── SPEED INDICATOR ──────────────────────────────────────── -->
  <rect x="790" y="10" width="62" height="22" rx="3" fill="#1a1a1a" stroke="#00d2be" stroke-width="0.8"/>
  <text x="821" y="18" fill="#00d2be" font-size="7" font-family="monospace" text-anchor="middle" letter-spacing="0.5">SPEED</text>
  <text x="821" y="28" fill="#ffffff" font-size="8.5" font-family="monospace" text-anchor="middle" font-weight="bold">
    <animate attributeName="textContent"
      values="312;318;324;328;326;320;285;260;240;255;280;305;312"
      dur="4s" repeatCount="indefinite"/>
  </text>

  <!-- ── DRS ACTIVE indicator ─────────────────────────────────── -->
  <rect x="370" y="10" width="122" height="18" rx="3" fill="#00d2be" opacity="0">
    <animate attributeName="opacity" values="0;0;0;0.18;0.18;0.18;0;0;0;0;0;0" dur="4s" repeatCount="indefinite"/>
  </rect>
  <text x="431" y="23" fill="#00d2be" font-size="8" font-family="monospace" text-anchor="middle" letter-spacing="2" opacity="0">
    DRS ACTIVE
    <animate attributeName="opacity" values="0;0;0;0.9;0.9;0.9;0;0;0;0;0;0" dur="4s" repeatCount="indefinite"/>
  </text>

</svg>
